<?xml version="1.0" encoding="UTF-8"?>
<svg id="Capa_2" data-name="Capa 2" xmlns="http://www.w3.org/2000/svg" viewBox="0 0 43.73 36.09">
  <defs>
    <style>
      .cls-1 {
        fill: #2488c1;
      }
    </style>
  </defs>
  <g id="Capa_2-2" data-name="Capa 2">
    <g id="Capa_1-2" data-name="Capa_1">
      <g id="_2449602703792" data-name=" 2449602703792">
        <g>
          <path d="m1.35,32.78c-.08,0-.26-.02-.53-.06-.02.51-.03,1.39-.03,2.66,0,.13-.04.25-.11.34-.07.09-.17.14-.28.14s-.21-.05-.28-.14-.11-.2-.11-.34v-1.48c0-.49.02-1.19.07-2.08.06-.97.09-1.66.09-2.08v-.69c0-.33.02-.57.05-.72.07-.3.21-.42.42-.38.09-.03.22-.06.39-.08.17-.02.38-.03.63-.03.53,0,1.02.21,1.48.63.51.46.76,1.02.76,1.67,0,.83-.27,1.49-.81,1.98-.49.44-1.07.66-1.75.66h0Zm.22-3.98c-.13,0-.24,0-.34.01-.1,0-.18.02-.25.03v.93s-.11,2-.11,2l.48.06c.49,0,.9-.14,1.23-.43.36-.31.55-.73.55-1.26,0-.37-.17-.7-.52-.97-.32-.25-.67-.37-1.03-.37h0Z"/>
          <path id="_1" data-name=" 1" d="m13.51,36.04c-.2,0-.34-.13-.4-.38-.07-.27-.13-.66-.18-1.17-.05-.49-.08-.89-.08-1.2,0-.09,0-.22.01-.4,0-.18,0-.31,0-.4,0-.63-.14-.94-.41-.94-.37,0-.7.19-.98.58-.15.2-.35.57-.61,1.13,0,1.28-.04,2.04-.13,2.27-.08.21-.2.31-.38.31-.12,0-.22-.05-.31-.14-.09-.09-.13-.21-.13-.34,0-.05.01-.12.04-.22.02-.08.04-.33.05-.73v-.74s.03-3.69.03-3.69c.02-.42.03-.69.03-.84,0-.17-.01-.33-.04-.49-.03-.15-.04-.31-.04-.48,0-.14.04-.26.13-.35.08-.09.18-.14.31-.14.24,0,.37.15.41.44.05.32.07.62.07.88,0,.35,0,.72-.03,1.1-.02.37-.02.73-.02,1.1v.44c.24-.37.49-.64.76-.83s.56-.28.86-.28c.48,0,.81.18.99.54.13.26.2.69.22,1.29l.03.96.09,1.05c.04.39.09.74.15,1.03.01.06.02.11.02.14,0,.14-.04.25-.13.34-.09.09-.19.14-.31.14h0Z"/>
          <path id="_2" data-name=" 2" d="m21.75,36.03c-.49,0-.9-.21-1.25-.62-.39-.46-.59-1.08-.61-1.86-.02-.76.15-1.42.49-2,.4-.68.97-1.02,1.69-1.02.58,0,1.01.31,1.31.92.24.5.35,1.09.34,1.79,0,.74-.18,1.38-.5,1.9-.37.6-.86.89-1.46.89h0Zm.26-4.49c-.42,0-.76.23-.99.7-.19.38-.28.81-.28,1.3s.11.86.34,1.13c.19.23.41.34.67.34.3,0,.56-.13.77-.38.24-.28.37-.66.39-1.14.04-1.3-.26-1.94-.9-1.95h0Z"/>
          <path id="_3" data-name=" 3" d="m33.2,36.09c-.25,0-.39-.16-.42-.47l-.12-1.1c-.04-.39-.06-.76-.06-1.1,0-.09,0-.25.02-.48,0-.23.02-.38.02-.48,0-.72-.12-1.09-.35-1.09-.32,0-.63.22-.93.67-.27.4-.47.92-.62,1.54,0,.13-.02.29-.04.49-.02.17-.03.33-.03.49,0,.1,0,.25.03.45.02.2.02.35.02.45,0,.15-.04.27-.12.37-.08.09-.18.14-.3.14s-.23-.05-.31-.14c-.08-.09-.12-.22-.12-.37,0-.1,0-.25-.03-.45-.02-.2-.03-.35-.03-.45,0-.35.02-.82.06-1.43.04-.61.06-1.09.06-1.43,0-.11,0-.26-.02-.48,0-.21-.02-.37-.02-.48,0-.14.04-.26.12-.35.08-.09.18-.14.31-.14.27,0,.41.22.44.65v.59c.5-.75,1-1.12,1.51-1.12.46,0,.78.24.97.71.12.31.19.78.2,1.4v.98c0,.28.03.64.09,1.08.06.44.09.8.09,1.07,0,.15-.04.27-.12.36-.08.09-.19.14-.31.14h0Z"/>
          <path id="_4" data-name=" 4" d="m41.67,35.96c-.65,0-1.18-.19-1.58-.57-.44-.42-.66-1-.66-1.76,0-.87.18-1.6.54-2.19.39-.64.92-.96,1.58-.96.48,0,.87.09,1.17.28.37.23.56.59.56,1.06,0,.33-.16.64-.49.91-.15.12-.45.31-.92.56l-1.65.91c.16.28.36.49.6.63.24.14.52.21.84.21.2,0,.43-.04.7-.13.34-.11.56-.26.66-.43.1-.18.2-.27.32-.27.1,0,.19.04.27.13.08.09.12.19.12.31,0,.37-.26.69-.77.96-.44.23-.87.34-1.28.34h0Zm-.11-4.57c-.35,0-.64.16-.88.47-.24.32-.41.79-.52,1.43l1.33-.73c.52-.3.89-.55,1.11-.77-.25-.27-.6-.4-1.04-.4Z"/>
          <g>
            <path class="cls-1" d="m10.11,26.01h-2.57v-10.75l-1.5,10.75h-1.99l-1.72-10.75v10.75H.08C.08,15.98-.81,6.87,3.78,6.87c1.56,11.75,1.1,11.87,2.47,0,4.71,0,3.86,8.75,3.86,19.14h0Z"/>
            <path class="cls-1" d="m16.88,26.01v-12.34c0-2.18-.97-3.51-2.91-3.51-2.07,0-3.11.66-3.11,3.37,0,4.85,2.45,4.08,2.45,1.12,0-1.23.17-1.86.51-1.86.3,0,.45.26.45.76v2.3c0,.26-.3.62-.91,1.07-1.04.77-1.74,1.42-2.08,1.94-.35.52-.52,1.13-.52,1.82v3.11c0,1.62.71,2.43,2.14,2.43.92,0,1.48-.27,1.68-.82v.6h2.3,0Zm-2.61-2.89c0,.47-.14.71-.43.71-.31,0-.47-.24-.47-.71v-2.82c0-.57.3-.96.9-1.18v4Z"/>
            <path class="cls-1" d="m23.67,16.93v-4.33c0-.66-.19-1.19-.56-1.6-.37-.4-.82-.6-1.33-.6-.73,0-1.27.21-1.61.63v-.52h-2.61v15.51h2.61v-12.48c0-.45.15-.68.45-.68s.45.24.45.71v3.36h2.61Z"/>
            <path class="cls-1" d="m30.82,4.94h-2.69l-1.32,6.73V0c-3.19,0-2.61.08-2.61,26.01h2.61v-7.57l1.58,7.57h3.07l-2.52-11.85c.63-3.07,1.25-6.15,1.88-9.22Z"/>
            <path class="cls-1" d="m37.97,13.53c0-2.09-1.02-3.14-3.06-3.14s-3.04,1.09-3.04,3.27v9.29c0,2.18,1.01,3.27,3.04,3.27s3.06-1.05,3.06-3.14v-3.15h-2.61v3.1c0,.52-.15.78-.44.78s-.44-.26-.44-.78v-3.59c.16,0,3.49.75,3.49-5.91h0Zm-2.61,3.59h-.88v-3.56c0-.51.15-.76.44-.76s.44.26.44.76v3.56Z"/>
            <path class="cls-1" d="m43.73,26.01h-1.65c-1.18,0-1.88-.26-2.11-.77-.23-.52-.35-1.51-.35-2.99v-9.48h-1.16v-2.27h1.16v-3.12s2.61-.08,2.61,3.12h1.41c0,2.61-1.41,2.27-1.41,2.27v9.46c0,.46.09.76.28.92.19.16.59.23,1.22.23v2.63h0Z"/>
          </g>
        </g>
      </g>
    </g>
  </g>
</svg>